HIERARCHY
ROOT Hips
{
  OFFSET 57.8838 95.319 338.509
  CHANNELS 6 Xposition Yposition Zposition Zrotation Xrotation Yrotation
  JOINT LeftUpLeg
  {
    OFFSET 8.64259 1.95398 -2.38835
    CHANNELS 3 Zrotation Xrotation Yrotation
    JOINT LeftLeg
    {
      OFFSET 43.7702 0 0
      CHANNELS 3 Zrotation Xrotation Yrotation
      JOINT LeftFoot
      {
        OFFSET 40.6238 0 0
        CHANNELS 3 Zrotation Xrotation Yrotation
        JOINT LeftToeBase
        {
          OFFSET 12.7242 0 0
          CHANNELS 3 Zrotation Xrotation Yrotation
          End Site
          {
            OFFSET 0 0 0
          }
        }
      }
    }
  }
  JOINT RightUpLeg
  {
    OFFSET -8.2249 1.95398 -2.59336
    CHANNELS 3 Zrotation Xrotation Yrotation
    JOINT RightLeg
    {
      OFFSET 43.5653 0 0
      CHANNELS 3 Zrotation Xrotation Yrotation
      JOINT RightFoot
      {
        OFFSET 40.6238 0 0
        CHANNELS 3 Zrotation Xrotation Yrotation
        JOINT RightToeBase
        {
          OFFSET 12.7242 0 0
          CHANNELS 3 Zrotation Xrotation Yrotation
          End Site
          {
            OFFSET 0 0 0
          }
        }
      }
    }
  }
  JOINT Spine
  {
    OFFSET 0.165834 0.87714 6.61349
    CHANNELS 3 Zrotation Xrotation Yrotation
    JOINT Spine1
    {
      OFFSET 7.38963 1.71661e-005 0
      CHANNELS 3 Zrotation Xrotation Yrotation
      JOINT Spine2
      {
        OFFSET 11.9445 1.14441e-005 0
        CHANNELS 3 Zrotation Xrotation Yrotation
        JOINT Spine3
        {
          OFFSET 14.7254 4.19617e-005 0
          CHANNELS 3 Zrotation Xrotation Yrotation
          JOINT Spine4
          {
            OFFSET 10.9679 0 0
            CHANNELS 3 Zrotation Xrotation Yrotation
            JOINT RightShoulder
            {
              OFFSET 2.46616 -1.6653 3.69651
              CHANNELS 3 Zrotation Xrotation Yrotation
              JOINT RightArm
              {
                OFFSET 13.0012 0 0
                CHANNELS 3 Zrotation Xrotation Yrotation
                JOINT RightForeArm
                {
                  OFFSET 28.7848 1.62311e-005 0
                  CHANNELS 3 Zrotation Xrotation Yrotation
                  JOINT RightHand
                  {
                    OFFSET 26.5688 1.62095e-005 0
                    CHANNELS 3 Zrotation Xrotation Yrotation
                    End Site
                    {
                      OFFSET 0 0 0
                    }
                  }
                }
              }
            }
            JOINT LeftShoulder
            {
              OFFSET 2.38034 -1.29275 -3.7523
              CHANNELS 3 Zrotation Xrotation Yrotation
              JOINT LeftArm
              {
                OFFSET 16.3182 6.07031e-005 0
                CHANNELS 3 Zrotation Xrotation Yrotation
                JOINT LeftForeArm
                {
                  OFFSET 27.0901 0 0
                  CHANNELS 3 Zrotation Xrotation Yrotation
                  JOINT LeftHand
                  {
                    OFFSET 24.5451 1.51738e-005 0
                    CHANNELS 3 Zrotation Xrotation Yrotation
                    End Site
                    {
                      OFFSET 0 0 0
                    }
                  }
                }
              }
            }
            JOINT Neck
            {
              OFFSET 5.0226 -0.0266342 0
              CHANNELS 3 Zrotation Xrotation Yrotation
              JOINT Head
              {
                OFFSET 6.69364 2.86102e-005 0
                CHANNELS 3 Zrotation Xrotation Yrotation
                End Site
                {
                  OFFSET 0 0 0
                }
              }
            }
          }
        }
      }
    }
  }
}
MOTION
Frames:	15
Frame Time:	0.0416667
-2.87463 82.2146 -10.9639 128.451 42.7851 67.0811 -178.682 28.2785 91.3549 -61.4015 13.6427 3.69314 57.2425 0.0142372 9.20534 56.8492 14.1376 11.6543 172.031 20.3131 98.0635 -67.5291 -20.7309 0.767941 63.0317 -5.52588 -7.03725 35.9289 -9.24283 1.59371 -0.547951 9.87185 -90.4309 7.12939 -1.27958 -0.793684 -4.54107 -1.31327 -0.736602 -27.0783 -0.981904 -1.14157 -7.06566 -0.981903 -1.14157 96.0656 -50.2713 -91.438 35.159 -20.5376 11.5661 -2.86681 -5.15369 -25.2709 -1.45477 -0.016617 -6.47423 -85.8771 -56.2561 85.773 -8.87049 0.684835 -18.5613 19.0859 31.9448 -53.0195 5.70914 -0.913072 -15.9795 4.35702 1.99822 -9.54771 -14.7596 1.81347 16.6182 
6.39613 84.1948 -22.3271 125.436 40.5157 65.6536 -179.456 25.1597 89.0804 -37.2938 13.024 0.313652 48.9151 -13.9786 -0.167244 54.2005 13.3757 15.696 172.201 13.8533 93.5318 -73.1685 -20.7237 -0.844183 62.757 -8.51772 -8.86402 39.1429 -14.8822 -4.97482 -0.318511 9.65382 -89.9097 7.56407 -0.596774 0.208199 -4.10691 -0.587024 0.234253 -26.6419 -0.631751 0.0192189 -6.62928 -0.631757 0.0192155 96.763 -49.7678 -90.4142 33.6768 -20.7254 8.59999 -2.13996 -2.47008 -26.5978 -2.10162 -0.0104342 -6.32381 -85.2913 -55.8823 86.5517 -7.94751 3.06717 -10.7468 24.2448 29.2806 -59.3694 -1.52543 -0.173646 -16.7051 2.71544 1.51216 -9.67045 -14.9359 1.26775 15.9635 
15.5515 84.2829 -33.1314 122.234 34.8697 70.496 -172.871 23.6713 90.9671 -45.2669 17.6411 -2.15016 54.8931 -6.37227 9.13123 34.1259 2.74736 1.57599 173.419 19.5257 93.7973 -88.0127 -19.2926 -1.8695 57.524 5.33498 0.215181 28.4394 0.850608 -6.89682 -0.186595 9.67359 -89.9426 7.52661 -0.347597 0.129146 -4.14431 -0.341607 0.144315 -26.68 -0.370357 0.0187007 -6.6673 -0.370367 0.0186926 96.2529 -48.1061 -91.4063 32.872 -22.4764 7.46486 -0.0654327 5.52227 -33.2202 -1.5223 0.00766783 -8.42442 -86.0474 -54.7429 85.3311 -7.33621 2.03486 -1.62557 28.9863 25.0423 -64.6197 -7.56407 0.565277 -18.6476 5.27836 3.69544 -11.4224 -16.0306 3.39421 19.3098 
23.2556 83.5519 -42.0844 124.456 35.4978 66.784 -170.409 21.4035 86.5273 -58.9482 18.2066 -0.992228 57.6209 1.20335 15.1517 38.9719 4.00927 -2.77545 168.875 25.9273 91.7487 -92.0662 -18.0594 -1.5852 61.3455 0.943572 1.5296 28.2501 1.0666 -6.36588 -0.831545 10.0503 -89.5412 6.77867 -1.46483 0.962321 -4.89185 -1.42106 1.02586 -27.4327 -1.68631 0.47751 -7.42006 -1.68631 0.477504 96.4779 -50.402 -90.7869 30.9375 -20.9343 3.96739 1.69957 6.83104 -35.6433 -6.86383 -0.00637943 -5.4772 -85.9349 -53.6824 85.3495 -3.54192 0.383137 -8.57217 28.5161 33.1131 -59.7616 -5.23413 0.296444 -19.7686 7.61434 4.44812 -13.5008 -16.4257 4.31241 22.538 
30.1817 84.9091 -49.5775 121.151 35.9643 70.192 -168.558 18.4913 87.5266 -62.7384 20.6591 -0.747518 58.9873 5.64581 19.5503 48.9187 8.26005 0.757256 166.599 30.9775 94.5507 -76.0916 -16.1766 1.18531 63.4925 0.630979 6.41062 31.8943 -4.44421 -7.66225 -0.74733 9.9679 -89.7089 6.94125 -1.36776 0.631099 -4.72919 -1.33866 0.690688 -27.2698 -1.49419 0.190778 -7.25713 -1.49417 0.190774 96.5195 -50.9719 -90.6605 32.9677 -22.0534 4.85035 3.5635 9.71274 -36.8578 -8.05388 -0.0920283 -4.27617 -86.3376 -54.0615 84.8211 -3.46487 -3.88862 -20.3408 26.2773 42.6934 -52.107 -6.62192 0.452723 -19.0236 7.61868 4.56242 -12.5008 -15.2885 4.39199 22.9525 
36.146 86.989 -56.1416 119.823 40.6111 69.2219 -170.631 16.1468 85.8247 -64.8866 20.7074 0.371303 58.3129 3.61438 15.4813 52.6323 10.2157 2.92074 166.92 29.9926 90.4697 -48.6839 -14.6255 5.32217 58.0409 10.2879 10.9843 30.4949 -2.392 -12.8949 -1.10224 9.92702 -89.6883 7.0264 -2.06747 0.704004 -4.64314 -2.03446 0.794321 -27.1915 -2.18342 0.0498032 -7.17886 -2.18343 0.0498017 96.6371 -51.5119 -90.4225 35.4932 -22.7596 7.74271 1.41062 9.11095 -38.2966 -0.638113 -0.0243284 -6.27715 -85.9332 -53.4147 85.3153 -6.01763 -1.78867 -23.8366 12.3674 29.1534 -47.196 -1.0823 -0.178373 -16.0377 9.22462 4.29602 -10.585 -13.0517 4.49961 21.1134 
42.5493 87.757 -62.545 119.747 45.132 67.2595 -170.554 18.7246 86.8075 -72.5901 19.3614 1.65077 51.9161 -7.95424 0.295854 50.1606 9.12586 2.81158 168.914 27.4307 86.7684 -37.5561 -13.233 6.50558 56.8612 13.8141 9.16361 20.1676 13.1036 -5.60785 -1.05569 9.90127 -89.7383 7.07577 -1.99597 0.605384 -4.59385 -1.96735 0.692658 -27.1412 -2.0856 -0.0227265 -7.12854 -2.08558 -0.0227251 96.7686 -51.2151 -90.2532 38.1477 -21.012 11.2546 1.64455 9.77793 -39.9446 -0.424402 -0.0286166 -6.61939 -85.6289 -51.5984 85.5119 -8.43803 3.62012 -27.5747 9.1491 21.5206 -52.3053 2.90711 -0.668323 -16.8394 6.96764 2.39372 -8.26674 -7.67312 3.14928 17.0246 
47.8382 86.3481 -67.8888 124.217 48.2897 63.9666 -171.53 23.1687 89.4785 -82.5906 22.3748 3.87439 53.1542 -6.33522 -0.967725 45.038 7.44237 8.0214 165.487 26.18 87.3469 -46.9145 -16.7413 7.23239 62.0437 2.65062 -2.24334 20.1723 10.851 2.64762 -0.830154 10.3168 -90.1206 6.23893 -1.70937 -0.180946 -5.43089 -1.71567 -0.105525 -27.9739 -1.57593 -0.686433 -7.96127 -1.57593 -0.686435 96.2984 -52.4662 -90.8325 35.2699 -22.3078 11.4649 0.0148874 7.86694 -41.4974 -3.26803 -0.0129965 -5.71873 -86.1641 -53.3852 84.9765 -5.82067 8.75287 -31.2647 14.7408 18.6434 -63.3237 3.81201 -0.746559 -16.4686 7.17865 0.0998065 -7.42117 -4.31916 1.26748 16.1984 
50.7972 87.036 -71.7592 120.231 50.6837 69.8723 -174.1 30.0345 93.3493 -74.6565 16.5285 3.70348 55.4353 -2.17188 4.8269 47.3071 8.75585 9.4683 162.954 26.6871 89.7453 -49.7359 -13.2218 8.28411 63.8591 0.799607 1.27506 21.5466 8.85691 3.87956 -0.688638 10.6315 -90.7152 5.59649 -1.67416 -1.36191 -6.07405 -1.73249 -1.28691 -28.6082 -1.18754 -1.80204 -8.59552 -1.18755 -1.80204 94.9603 -53.997 -92.6436 23.5524 -25.907 -3.2064 -5.52856 -5.28147 -30.9854 -3.55279 -0.0426853 -4.97409 -87.0826 -54.6566 83.8404 -6.55567 9.06131 -31.9141 21.5012 18.7693 -68.4503 5.90675 -0.963902 -16.407 2.79984 -0.782563 -1.24959 9.97007 0.663212 11.3813 
52.3172 88.9076 -74.4617 113.692 50.2625 73.7816 -175.904 30.5529 93.339 -52.7604 13.1834 1.6135 54.4939 -3.40064 5.00989 51.3956 11.0345 11.1113 162.888 27.4421 89.2466 -47.7305 -11.5133 7.90567 64.2819 -0.138475 3.05572 21.924 8.3404 4.12794 -0.468777 10.7609 -90.7071 5.34253 -1.2299 -1.36239 -6.32852 -1.28868 -1.30695 -28.8599 -0.763655 -1.66898 -8.8473 -0.763674 -1.66898 94.8125 -52.0298 -93.1265 19.4666 -16.9006 -14.8941 -4.53095 -15.7197 -22.9221 -8.52633 -0.168722 -2.94836 -87.8759 -55.0485 82.7716 -8.12015 9.57911 -34.2411 18.6416 23.9116 -62.6746 7.81342 -1.12668 -15.9741 7.17712 -0.561952 -5.8426 8.2519 2.08226 16.0055 
53.377 90.003 -77.8022 107.714 47.3509 78.0544 -176.803 27.2983 93.2797 -39.2936 16.7698 0.168613 53.2895 -5.04031 8.99187 39.7227 4.74743 2.51116 163.9 28.349 89.3128 -46.809 -12.6291 7.09326 64.1015 -1.26163 2.90045 23.5647 6.1923 4.87006 -0.314225 10.9097 -90.6371 5.048 -0.890505 -1.23463 -6.62318 -0.943982 -1.19425 -29.1546 -0.478318 -1.44515 -9.14193 -0.47833 -1.44515 93.9634 -50.9328 -94.5778 17.0076 -8.09918 -24.652 -2.39896 -12.9482 -21.1081 -6.99475 -0.0918132 -4.03197 -88.4799 -55.9364 82.0665 -8.37443 8.35245 -35.4918 20.1913 30.4656 -59.3687 5.1263 -0.801247 -15.1061 4.6609 0.56317 -7.50544 13.1533 4.36946 18.2853 
53.4879 89.9476 -80.62 104.26 44.9956 81.0932 -175.054 28.5794 92.9557 -41.0436 16.7757 -0.795899 54.801 -3.22787 12.349 37.5821 3.51601 -1.70003 164.61 29.986 89.5623 -48.1011 -14.3359 6.18149 63.9014 -2.00882 3.04335 25.358 4.07673 4.17761 -0.32868 11.1724 -90.6567 4.52207 -0.924501 -1.2778 -7.14913 -0.979817 -1.23589 -29.6802 -0.497774 -1.49653 -9.66758 -0.497777 -1.49655 93.5168 -50.8561 -95.2718 16.0992 -2.41903 -34.9924 -4.36745 -15.4891 -23.4609 -5.45287 -0.0777004 -3.901 -89.0572 -55.3115 81.1435 -9.41645 7.39399 -36.7224 26.4944 36.7166 -60.2379 2.71009 -0.585884 -15.4968 0.842284 0.964629 -5.65413 21.6902 5.70091 18.5207 
53.5162 89.5452 -82.4667 98.8611 45.4604 84.5546 -173.249 32.7813 92.0223 -43.1432 17.8509 -2.23878 55.8429 -1.28034 12.2071 38.4889 3.86123 -1.8611 164.538 33.5876 89.069 -49.0679 -14.3342 6.45166 65.3081 -3.89293 2.71172 26.2085 3.03226 4.07324 -0.265018 11.1782 -90.7309 4.50984 -0.82739 -1.4243 -7.16161 -0.889258 -1.38652 -29.6909 -0.361152 -1.60707 -9.67826 -0.361146 -1.60707 93.8535 -49.6509 -94.9512 16.0821 -0.872605 -39.878 -8.25438 -15.2693 -31.4082 -5.08468 0.0146257 -6.11789 -89.3649 -55.0393 80.6582 -12.1246 6.40283 -42.0228 26.5778 44.0124 -56.4227 1.03737 -0.435596 -15.902 8.27875 0.882378 -8.63986 16.3208 5.94447 19.8752 
52.8464 88.4178 -83.6729 92.7752 42.512 89.6255 -170.747 38.2662 91.9889 -46.1543 18.0325 -3.58173 56.9719 1.16622 15.2981 39.788 4.43685 -0.384868 164.179 39.0817 90.7183 -51.0395 -15.588 6.65541 65.1872 -3.8708 2.89557 27.7709 1.20185 2.44891 0.0192391 11.281 -90.7547 4.30794 -0.267926 -1.47666 -7.36379 -0.332652 -1.46345 -29.8924 0.188209 -1.48893 -9.87971 0.188218 -1.48892 94.1156 -47.1943 -94.9428 13.7275 -4.80435 -44.9158 -12.9182 -12.7679 -41.8688 -5.60874 0.0395274 -6.64742 -88.7411 -54.1518 81.3844 -16.4909 4.80104 -47.7326 28.1908 49.2039 -53.1627 3.47837 -0.763042 -17.3763 7.36825 1.69793 -9.00661 23.8387 8.15 19.8095 
52.2281 86.8875 -84.3833 87.3677 41.328 92.7787 -168.897 44.2402 89.9418 -49.9546 17.1117 -4.13376 57.6832 2.62569 15.9443 41.4502 5.11703 -0.157892 161.545 45.2221 91.3823 -54.4854 -14.1106 7.17633 66.0202 -5.36972 2.56263 33.029 -5.59963 0.794751 0.120238 11.4201 -90.6494 4.03181 -0.0217411 -1.27163 -7.63975 -0.0777008 -1.26945 -30.1702 0.361401 -1.2194 -10.1575 0.361401 -1.2194 94.2936 -44.5457 -95.1038 11.0672 -8.89061 -49.1304 -18.6594 -9.85834 -51.7362 -5.11007 0.0078913 -5.98613 -88.742 -52.651 81.1115 -22.1308 3.36422 -53.4917 26.9044 49.6528 -48.2537 2.57854 -0.627804 -16.6726 11.0008 1.03544 -9.6047 24.1631 8.12685 20.339 
